<svg xmlns="http://www.w3.org/2000/svg" viewBox="0 0 64 64" width="64" height="64">
  <circle cx="32" cy="32" r="30" fill="#63fdff" />
  <path
    d="M36.4,51.2c0,0-3.5-1.2-4.8-4.8s-3.9-9.5-3.9-9.5s-1.5-6.1-4.5-6.1s-4.4,4.9-4.4,4.9s-5,0.7-7.4-3.6c-2.4-4.3-2.1-12-2.1-12h-3.7v1.2
    h-5.4v-1.2h-3.7s0.3,7.7-2.1,12c-2.4,4.3-7.4,3.6-7.4,3.6s-3.5-4.9-4.4-4.9s-4.5-4.2-4.5-4.2s-3.9,7.3-3.9,9.5s-4.8,4.8-4.8,4.8s-2.1,0.2-2.1,3.4v2.3
    c0,3.2,2.1,3.4,2.1,3.4s1.2,4.4,4.4,6.7s2.1,14.1,14.5,14.1s14.5-12.3,14.5-14.1s4.4-6.7,4.4-6.7s2.1-0.2,2.1-3.4v-2.3
    C38.5,51.4,36.4,51.2,36.4,51.2z"
    fill="#2f2e41"
  />
</svg>
